<?xml version="1.0" standalone="no"?>
<!DOCTYPE svg PUBLIC "-//W3C//DTD SVG 20010904//EN"
 "http://www.w3.org/TR/2001/REC-SVG-20010904/DTD/svg10.dtd">
<svg version="1.0" xmlns="http://www.w3.org/2000/svg"
 width="1024.000000pt" height="1024.000000pt" viewBox="289 306.46 449 388.33"
 preserveAspectRatio="xMidYMid meet">

<g transform="translate(0.000000,1024.000000) scale(0.100000,-0.100000)"
fill="#FFFFFF" stroke="none">
<path d="M5074 7169 c-17 -5 -50 -29 -73 -54 -38 -42 -41 -48 -41 -103 0 -45
5 -67 23 -93 53 -79 142 -101 222 -56 51 29 100 121 91 170 -18 97 -129 164
-222 136z m50 -85 c9 -23 -16 -69 -38 -69 -10 0 -23 7 -29 16 -8 13 -4 22 19
43 34 30 40 31 48 10z"/>
<path d="M4660 6702 c-51 -25 -67 -78 -41 -135 10 -23 40 -67 65 -97 63 -75
102 -153 117 -230 l12 -65 312 0 312 0 17 87 c17 82 62 178 84 178 5 0 19 19
32 43 13 23 36 57 52 75 33 39 36 70 7 106 -52 67 -117 70 -213 12 -33 -20
-70 -36 -82 -36 -12 0 -50 16 -83 36 -92 55 -132 56 -224 5 -41 -22 -82 -41
-92 -41 -10 0 -50 18 -90 40 -82 45 -129 51 -185 22z"/>
<path d="M4766 5991 c-3 -5 -32 -12 -63 -16 -69 -8 -116 -35 -133 -74 -10 -25
-9 -35 6 -66 29 -62 62 -75 191 -75 l111 0 11 -50 c16 -72 14 -378 -3 -480
-25 -156 -79 -287 -153 -374 -18 -22 -33 -45 -33 -52 0 -20 53 -22 474 -23
l399 0 -21 22 c-35 38 -111 172 -137 241 -14 36 -32 106 -40 154 -22 119 -31
440 -16 513 l12 57 107 -2 c129 -1 163 10 187 63 40 90 0 142 -113 149 -37 2
-71 8 -76 13 -13 12 -703 12 -710 0z"/>
<path d="M3862 4870 c-14 -35 -147 -260 -183 -307 -21 -29 -39 -57 -39 -63 0
-12 21 -13 383 -10 153 1 291 5 307 10 16 5 44 25 61 45 18 20 58 50 90 66
l58 29 -6 84 c-5 74 -3 89 15 120 l21 36 -147 3 c-390 6 -554 3 -560 -13z"/>
<path d="M5713 4852 c22 -36 26 -90 14 -168 l-7 -51 48 -21 c26 -11 70 -42 97
-68 l50 -47 348 -5 c227 -3 347 -1 347 5 0 6 -8 21 -18 34 -39 51 -143 222
-177 290 l-36 71 -343 -3 -342 -4 19 -33z"/>
<path d="M4659 4580 c-16 -26 -58 -68 -98 -98 -39 -29 -79 -67 -88 -85 -21
-39 -22 -172 -1 -232 l13 -40 639 0 639 0 14 40 c8 22 17 72 20 112 5 65 3 76
-21 117 -15 25 -58 71 -97 102 -39 31 -79 70 -90 88 l-19 31 -442 5 -441 5
-28 -45z"/>
<path d="M3290 3949 c0 -3 -47 -78 -104 -165 -164 -252 -296 -467 -296 -482 0
-10 7 -12 23 -8 13 3 293 6 623 6 l601 2 17 56 c9 31 29 95 43 142 14 47 38
126 55 175 25 78 78 267 78 280 0 3 -234 4 -520 2 -286 -1 -520 -5 -520 -8z"/>
<path d="M5900 3949 c0 -5 6 -24 14 -42 19 -47 166 -532 173 -570 l5 -32 644
0 c360 0 644 4 644 9 0 5 -21 38 -47 75 -58 80 -266 387 -335 493 l-50 77
-524 -1 c-314 0 -524 -4 -524 -9z"/>
</g>
</svg>
