<?xml version="1.0" encoding="UTF-8"?>
<svg width="752pt" height="752pt" version="1.1" viewBox="0 0 752 752" xmlns="http://www.w3.org/2000/svg">
 <g>
  <path d="m384.36 276.33 100.62 99.82-100.62 99.793c-11.039 11.039-11.039 28.902 0 39.945 11.16 11.027 29.184 11.027 40.344 0l120.68-119.79c11.039-11.039 11.039-28.918 0-39.93l-120.68-119.8c-11.16-11.039-29.184-11.012-40.344 0-11.039 11.055-11.039 28.914 0 39.957z"/>
  <path d="m367.83 396.1c11.039-11.039 11.039-28.918 0-39.93l-120.69-119.8c-11.16-11.039-29.199-11.012-40.359 0-11.039 11.039-11.039 28.902 0 39.945l100.64 99.82-100.64 99.793c-11.039 11.039-11.039 28.902 0 39.945 11.16 11.027 29.199 11.027 40.359 0z"/>
 </g>
</svg>
